<?xml version="1.0" encoding="iso-8859-1"?>
<!-- Generator: Adobe Illustrator 19.0.0, SVG Export Plug-In . SVG Version: 6.00 Build 0)  -->
<svg xmlns="http://www.w3.org/2000/svg" xmlns:xlink="http://www.w3.org/1999/xlink" version="1.1" id="Layer_1" x="0px" y="0px" viewBox="0 0 512 512" style="enable-background:new 0 0 512 512;" xml:space="preserve" width="512px" height="512px">
<g>
	<g>
		<path d="M416.313,136.266c-7.489,0-14.572,1.747-20.882,4.842L263.515,67.235V55.108h40.579c3.17,0,6.074-2.069,7.105-5.068    c1.098-3.192-0.126-6.826-2.937-8.7l-44.747-29.831V7.515C263.515,3.364,260.151,0,256,0s-7.515,3.364-7.515,7.515v8.016v32.063    v19.642L116.57,141.109c-6.309-3.095-13.394-4.842-20.883-4.842c-26.242,0-47.593,21.351-47.593,47.593v32.063    c0,4.151,3.364,7.515,7.515,7.515h176.845v113.221h-11.759c-6.996-14.529-19.696-46.471-21.306-50.176v-38.497    c0-3.135-2.071-6.054-5.029-7.089c-2.956-1.034-6.395-0.052-8.353,2.394l-31.121,38.901l-43.011,23.489    c-0.193,0.105-0.383,0.22-0.566,0.343c-9.859,6.573-13.298,19.521-7.999,30.122l3.106,6.21    c5.433,10.867,18.523,15.843,29.804,11.332l18.756-7.502l18.259,60.863c3.009,10.038,12.073,16.781,22.551,16.781h4.605v33.065    h-39.577c-4.151,0-7.515,3.364-7.515,7.515s3.364,7.515,7.515,7.515h255.499c13.536,0,24.548,11.012,24.548,24.548v0.501H71.139    v-0.501c0-13.536,11.012-24.548,24.548-24.548h33.065c4.151,0,7.515-3.364,7.515-7.515s-3.364-7.515-7.515-7.515H95.687    c-21.823,0-39.577,17.755-39.577,39.577v8.016c0,4.151,3.364,7.515,7.515,7.515h384.751c4.151,0,7.515-3.364,7.515-7.515v-8.016    c0-21.823-17.755-39.577-39.577-39.577H311.609v-33.065h0.501c12.983,0,23.546-10.563,23.546-23.546v-24.277l13.396,26.791    c4.014,8.03,12.084,13.016,21.06,13.016h38.186c2.948,0,5.624-1.724,6.843-4.41c1.218-2.685,0.753-5.833-1.188-8.053    l-56.11-64.125c-1.428-1.631-3.488-2.567-5.656-2.567h-72.641V223.436h88.673c4.151,0,7.515-3.364,7.515-7.515    c0-4.151-3.364-7.515-7.515-7.515H63.123v-9.018h385.753v9.018h-48.261c-4.151,0-7.515,3.364-7.515,7.515    c0,4.151,3.364,7.515,7.515,7.515h55.776c4.151,0,7.515-3.364,7.515-7.515v-32.063    C463.906,157.617,442.555,136.266,416.313,136.266z M263.515,29.572l15.76,10.506h-15.76V29.572z M348.778,351.687l42.959,49.096    h-21.625c-3.246,0-6.165-1.805-7.618-4.708l-22.193-44.388H348.778z M232.454,456.892h-17.033v-33.065h17.033V456.892z     M264.517,456.892h-17.033v-33.065h17.033V456.892z M296.579,456.892h-17.033v-33.065h17.033V456.892z M295.403,351.687    c-3.181,9.872-12.455,17.033-23.372,17.033s-20.19-7.161-23.372-17.033H295.403z M247.483,223.436h17.033v113.221h-17.033V223.436    z M272.031,383.75c19.254,0,35.331-13.822,38.853-32.063h9.742v48.594c0,4.696-3.82,8.517-8.517,8.517H195.786    c-3.79,0-7.069-2.44-8.158-6.07l-20.619-68.732c-1.248-4.163-5.945-6.432-9.989-4.818l-26.384,10.553    c-4.075,1.635-8.815-0.167-10.78-4.099l-3.106-6.209c-1.875-3.75-0.725-8.315,2.663-10.737l43.998-24.029    c0.874-0.477,1.644-1.123,2.266-1.9l18.682-23.35v18.655c0,1.057,0.223,2.102,0.654,3.067c1.671,3.738,15.896,39.513,24.254,56.38    c1.268,2.559,3.877,4.178,6.733,4.178h17.177C236.7,369.929,252.778,383.75,272.031,383.75z M63.123,184.36v-0.501    c0-17.956,14.608-32.564,32.564-32.564s32.564,14.608,32.564,32.564c0,0.169,0.014,0.335,0.025,0.501H63.123z M135.765,158.215    c-1.7-2.647-3.665-5.105-5.84-7.36l108.387-60.697l-40.192,51.675c-6.653-3.541-14.23-5.567-22.276-5.567    C159.037,136.266,144.236,145.024,135.765,158.215z M143.255,184.36c0.011-0.166,0.025-0.332,0.025-0.501    c0-17.956,14.608-32.564,32.564-32.564s32.564,14.608,32.564,32.564c0,0.169,0.014,0.335,0.025,0.501H143.255z M223.411,184.36    c0.011-0.166,0.025-0.332,0.025-0.501c0-17.956,14.608-32.564,32.564-32.564c17.956,0,32.564,14.608,32.564,32.564    c0,0.169,0.014,0.335,0.025,0.501H223.411z M296.078,158.215c-8.471-13.191-23.271-21.949-40.078-21.949    s-31.608,8.758-40.078,21.949c-1.691-2.633-3.644-5.081-5.805-7.326L256,91.896l45.884,58.993    C299.722,153.134,297.769,155.582,296.078,158.215z M303.568,184.36c0.011-0.166,0.025-0.332,0.025-0.501    c0-17.956,14.608-32.564,32.564-32.564s32.564,14.608,32.564,32.564c0,0.169,0.014,0.335,0.025,0.501H303.568z M376.236,158.216    c-8.472-13.192-23.272-21.95-40.079-21.95c-8.048,0-15.625,2.025-22.276,5.567l-40.192-51.675l108.388,60.697    C379.901,153.11,377.936,155.569,376.236,158.216z M448.877,184.36h-65.152c0.011-0.166,0.025-0.332,0.025-0.501    c0-17.956,14.608-32.564,32.564-32.564s32.564,14.608,32.564,32.564V184.36z" fill="#fdaeae"/>
	</g>
</g>
<g>
</g>
<g>
</g>
<g>
</g>
<g>
</g>
<g>
</g>
<g>
</g>
<g>
</g>
<g>
</g>
<g>
</g>
<g>
</g>
<g>
</g>
<g>
</g>
<g>
</g>
<g>
</g>
<g>
</g>
</svg>
